<?xml version="1.0" standalone="no"?>
<!DOCTYPE svg PUBLIC "-//W3C//DTD SVG 20010904//EN"
 "http://www.w3.org/TR/2001/REC-SVG-20010904/DTD/svg10.dtd">
<svg version="1.0" xmlns="http://www.w3.org/2000/svg"
 width="1000.000000pt" height="1000.000000pt" viewBox="0 0 1000.000000 1000.000000"
 preserveAspectRatio="xMidYMid meet">
<metadata>
Created by potrace 1.11, written by Peter Selinger 2001-2013
</metadata>
<g transform="translate(0.000000,1000.000000) scale(0.100000,-0.100000)"
fill="#000000" stroke="none">
<path d="M0 5000 l0 -5000 5000 0 5000 0 0 5000 0 5000 -5000 0 -5000 0 0
-5000z m4525 3010 c681 -58 1452 -404 1889 -848 57 -58 76 -84 70 -94 -5 -8
-94 -132 -199 -277 -104 -145 -237 -329 -295 -410 -350 -489 -361 -503 -380
-489 -9 7 -66 53 -126 101 -347 281 -744 476 -1082 532 -134 23 -340 17 -426
-11 -147 -47 -201 -167 -130 -291 68 -119 226 -188 749 -328 417 -112 547
-153 752 -236 238 -97 462 -222 638 -358 231 -178 404 -458 484 -783 44 -180
54 -289 48 -516 -7 -270 -41 -415 -153 -650 -217 -458 -634 -824 -1127 -987
-283 -94 -513 -128 -857 -128 -373 -1 -628 44 -1007 174 -596 206 -1120 555
-1414 941 -33 42 -59 79 -59 82 0 5 281 323 526 596 17 19 125 140 239 268
l208 233 133 -139 c379 -396 678 -583 1049 -659 128 -26 498 -26 600 0 194 49
291 140 303 282 16 203 -206 345 -688 440 -509 100 -1084 312 -1390 513 -167
110 -340 311 -443 517 -177 355 -204 873 -66 1287 185 556 695 1006 1322 1167
263 68 563 93 832 71z m3231 -4060 c375 -39 680 -306 759 -665 25 -110 17
-341 -15 -440 -61 -191 -182 -351 -353 -467 -270 -183 -663 -194 -948 -26 -87
51 -215 169 -274 253 -58 82 -90 148 -122 252 -24 79 -26 104 -26 238 0 122 4
165 21 228 80 293 336 541 627 607 118 27 210 33 331 20z"/>
</g>
</svg>
