<svg xmlns="http://www.w3.org/2000/svg" width="964" height="268"><path fill-rule="evenodd" fill="#F0F0F0" d="M953.517 214.332c-6.639 6.531-14.726 9.797-24.261 9.797-9.54 0-17.626-3.266-24.26-9.797-6.639-6.532-9.953-14.463-9.953-23.794 0-9.331 3.314-17.209 9.953-23.639 6.634-6.424 14.72-9.642 24.26-9.642 9.535 0 17.622 3.218 24.261 9.642 6.633 6.43 9.953 14.308 9.953 23.639s-3.32 17.262-9.953 23.794zm-133.12 9.797c-8.708 0-16.795-1.662-24.26-4.977-7.465-3.314-12.859-7.668-16.174-13.063v61.584h-55.985V67.37h55.985v14.929c3.315-5.39 8.656-9.744 16.019-13.063 7.357-3.315 15.498-4.977 24.415-4.977 19.075 0 35.302 7.829 48.677 23.483 13.374 15.659 20.061 34.476 20.061 56.452 0 21.981-6.687 40.799-20.061 56.452-13.375 15.659-29.602 23.483-48.677 23.483zm6.221-99.063c-5.185-5.079-11.508-7.621-18.973-7.621-12.237 0-21.461 4.773-27.682 14.308v24.571c6.221 9.749 15.445 14.619 27.682 14.619 7.465 0 13.788-2.537 18.973-7.62 5.181-5.079 7.776-11.455 7.776-19.129 0-7.669-2.595-14.045-7.776-19.128zm-209.632 34.68c4.146 11.406 13.686 17.106 28.615 17.106 4.559 0 9.278-1.035 14.152-3.11 4.87-2.07 8.033-4.456 9.486-7.154l43.856 26.749c-5.395 9.749-14.206 17.316-26.438 22.705-12.237 5.39-26.438 8.087-42.611 8.087-22.812 0-42.145-7.776-58.007-23.327-15.863-15.552-23.794-34.627-23.794-57.23 0-22.394 7.776-41.211 23.327-56.452 15.552-15.24 34.729-22.861 57.541-22.861 20.941 0 38.616 7.105 53.031 21.306 14.409 14.205 21.616 31.569 21.616 52.097 0 7.052-.622 14.415-1.866 22.084h-98.908zm37.013-46.188c-4.15-2.8-8.816-4.199-13.996-4.199-12.238 0-20.115 5.083-23.639 15.24h45.411c-1.04-4.558-3.631-8.242-7.776-11.041zM460.23 159.746c4.145 11.406 13.685 17.106 28.614 17.106 4.559 0 9.278-1.035 14.152-3.11 4.87-2.07 8.034-4.456 9.487-7.154l43.855 26.749c-5.394 9.749-14.205 17.316-26.438 22.705-12.237 5.39-26.437 8.087-42.611 8.087-22.812 0-42.144-7.776-58.007-23.327-15.863-15.552-23.794-34.627-23.794-57.23 0-22.394 7.776-41.211 23.328-56.452 15.551-15.24 34.728-22.861 57.54-22.861 20.941 0 38.617 7.105 53.031 21.306 14.409 14.205 21.617 31.569 21.617 52.097 0 7.052-.623 14.415-1.867 22.084H460.23zm37.012-46.188c-4.15-2.8-8.816-4.199-13.996-4.199-12.237 0-20.115 5.083-23.638 15.24h45.41c-1.04-4.558-3.63-8.242-7.776-11.041zm-193.769 46.188c4.145 11.406 13.685 17.106 28.615 17.106 4.558 0 9.277-1.035 14.152-3.11 4.869-2.07 8.033-4.456 9.486-7.154l43.855 26.749c-5.394 9.749-14.205 17.316-26.437 22.705-12.237 5.39-26.438 8.087-42.611 8.087-22.813 0-42.145-7.776-58.008-23.327-15.862-15.552-23.793-34.627-23.793-57.23 0-22.394 7.775-41.211 23.327-56.452 15.551-15.24 34.728-22.861 57.541-22.861 20.941 0 38.616 7.105 53.03 21.306 14.41 14.205 21.617 31.569 21.617 52.097 0 7.052-.622 14.415-1.866 22.084h-98.908zm37.013-46.188c-4.151-2.8-8.816-4.199-13.997-4.199-12.237 0-20.115 5.083-23.638 15.24h45.41c-1.04-4.558-3.63-8.242-7.775-11.041zM186.526 3.297h55.986v217.722h-55.986V3.297zM96.018 79.811l20.373 5.443c7.358 1.973 14.774 4.617 22.238 7.931 7.465 3.319 14.308 7.363 20.528 12.13 6.221 4.773 11.246 11.304 15.085 19.595 3.835 8.296 5.754 17.836 5.754 28.615 0 18.662-7.518 35.098-22.549 49.298-15.037 14.206-35.409 21.306-61.118 21.306-17.417 0-35.409-4.457-53.964-13.374-18.559-8.913-32.4-20.008-41.522-33.281l37.946-42.611c8.913 10.371 17.83 18.302 26.748 23.794 8.913 5.497 19.177 8.242 30.792 8.242 15.343 0 23.017-4.247 23.017-12.752 0-3.936-2.542-7.256-7.621-9.953-5.083-2.692-11.459-4.714-19.128-6.065-7.674-1.346-16.018-3.577-25.038-6.687-9.02-3.11-17.369-6.736-25.038-10.886-7.674-4.146-14.05-10.522-19.128-19.129-5.084-8.602-7.621-19.021-7.621-31.258 0-19.906 7.465-36.546 22.395-49.921C53.096 6.874 72.171.187 95.396.187c14.308 0 29.548 3.475 45.722 10.419 16.173 6.95 28.717 15.605 37.634 25.972l-33.591 46.654c-9.127-8.087-18.56-14.409-28.304-18.973-9.749-4.558-18.56-6.842-26.437-6.842-10.162 0-15.241 2.697-15.241 8.086 0 3.32 1.915 6.119 5.754 8.398 3.835 2.284 8.865 4.253 15.085 5.91z"/></svg>
